<svg width="519" height="574" viewBox="0 0 519 574" fill="none" xmlns="http://www.w3.org/2000/svg">
<path d="M121.137 71.224C120.559 71.224 120.111 71.0653 119.793 70.748C119.495 70.412 119.345 69.9547 119.345 69.376V52.884C119.345 52.2867 119.495 51.8293 119.793 51.512C120.111 51.1947 120.559 51.036 121.137 51.036C121.716 51.036 122.155 51.1947 122.453 51.512C122.771 51.8293 122.929 52.2867 122.929 52.884V69.376C122.929 69.9547 122.78 70.412 122.481 70.748C122.183 71.0653 121.735 71.224 121.137 71.224ZM131.924 71.28C131.121 71.28 130.272 71.196 129.376 71.028C128.48 70.86 127.677 70.5707 126.968 70.16C126.669 69.9733 126.454 69.7587 126.324 69.516C126.212 69.2547 126.165 69.0027 126.184 68.76C126.221 68.4987 126.314 68.2747 126.464 68.088C126.632 67.9013 126.837 67.78 127.08 67.724C127.341 67.668 127.621 67.7147 127.92 67.864C128.666 68.2187 129.366 68.4707 130.02 68.62C130.673 68.7507 131.317 68.816 131.952 68.816C132.848 68.816 133.51 68.6667 133.94 68.368C134.388 68.0507 134.612 67.64 134.612 67.136C134.612 66.7067 134.462 66.38 134.164 66.156C133.884 65.9133 133.454 65.736 132.876 65.624L130.076 65.092C128.918 64.868 128.032 64.448 127.416 63.832C126.818 63.1973 126.52 62.3853 126.52 61.396C126.52 60.5 126.762 59.7253 127.248 59.072C127.752 58.4187 128.442 57.9147 129.32 57.56C130.197 57.2053 131.205 57.028 132.344 57.028C133.165 57.028 133.93 57.1213 134.64 57.308C135.368 57.476 136.068 57.7467 136.74 58.12C137.02 58.2693 137.206 58.4653 137.3 58.708C137.412 58.9507 137.44 59.2027 137.384 59.464C137.328 59.7067 137.216 59.9307 137.048 60.136C136.88 60.3227 136.665 60.444 136.404 60.5C136.161 60.5373 135.881 60.4813 135.564 60.332C134.985 60.0333 134.425 59.8187 133.884 59.688C133.361 59.5573 132.857 59.492 132.372 59.492C131.457 59.492 130.776 59.6507 130.328 59.968C129.898 60.2853 129.684 60.7053 129.684 61.228C129.684 61.62 129.814 61.9467 130.076 62.208C130.337 62.4693 130.738 62.6467 131.28 62.74L134.08 63.272C135.293 63.496 136.208 63.9067 136.824 64.504C137.458 65.1013 137.776 65.904 137.776 66.912C137.776 68.2747 137.244 69.348 136.18 70.132C135.116 70.8973 133.697 71.28 131.924 71.28ZM142.32 71.224C141.76 71.224 141.33 71.0747 141.032 70.776C140.733 70.4587 140.584 70.0107 140.584 69.432V52.8C140.584 52.2213 140.733 51.7827 141.032 51.484C141.33 51.1853 141.76 51.036 142.32 51.036C142.88 51.036 143.309 51.1853 143.608 51.484C143.925 51.7827 144.084 52.2213 144.084 52.8V60.052H143.692C144.102 59.0627 144.737 58.316 145.596 57.812C146.473 57.2893 147.462 57.028 148.564 57.028C149.665 57.028 150.57 57.2333 151.28 57.644C151.989 58.0547 152.521 58.68 152.876 59.52C153.23 60.3413 153.408 61.3867 153.408 62.656V69.432C153.408 70.0107 153.258 70.4587 152.96 70.776C152.661 71.0747 152.232 71.224 151.672 71.224C151.112 71.224 150.673 71.0747 150.356 70.776C150.057 70.4587 149.908 70.0107 149.908 69.432V62.824C149.908 61.76 149.702 60.9853 149.292 60.5C148.9 60.0147 148.284 59.772 147.444 59.772C146.417 59.772 145.596 60.0987 144.98 60.752C144.382 61.3867 144.084 62.236 144.084 63.3V69.432C144.084 70.6267 143.496 71.224 142.32 71.224ZM158.699 71.196C158.139 71.196 157.709 71.028 157.411 70.692C157.112 70.356 156.963 69.8893 156.963 69.292V59.016C156.963 58.4 157.112 57.9333 157.411 57.616C157.709 57.28 158.139 57.112 158.699 57.112C159.259 57.112 159.688 57.28 159.987 57.616C160.304 57.9333 160.463 58.4 160.463 59.016V69.292C160.463 69.8893 160.313 70.356 160.015 70.692C159.716 71.028 159.277 71.196 158.699 71.196ZM158.699 54.508C158.045 54.508 157.532 54.3493 157.159 54.032C156.804 53.696 156.627 53.2387 156.627 52.66C156.627 52.0627 156.804 51.6053 157.159 51.288C157.532 50.9707 158.045 50.812 158.699 50.812C159.371 50.812 159.884 50.9707 160.239 51.288C160.593 51.6053 160.771 52.0627 160.771 52.66C160.771 53.2387 160.593 53.696 160.239 54.032C159.884 54.3493 159.371 54.508 158.699 54.508ZM165.835 71.224C165.275 71.224 164.846 71.0747 164.547 70.776C164.249 70.4587 164.099 70.0107 164.099 69.432V58.848C164.099 58.2693 164.249 57.8307 164.547 57.532C164.846 57.2333 165.266 57.084 165.807 57.084C166.349 57.084 166.769 57.2333 167.067 57.532C167.366 57.8307 167.515 58.2693 167.515 58.848V60.752L167.207 60.052C167.618 59.0627 168.253 58.316 169.111 57.812C169.989 57.2893 170.978 57.028 172.079 57.028C173.181 57.028 174.086 57.2333 174.795 57.644C175.505 58.0547 176.037 58.68 176.391 59.52C176.746 60.3413 176.923 61.3867 176.923 62.656V69.432C176.923 70.0107 176.774 70.4587 176.475 70.776C176.177 71.0747 175.747 71.224 175.187 71.224C174.627 71.224 174.189 71.0747 173.871 70.776C173.573 70.4587 173.423 70.0107 173.423 69.432V62.824C173.423 61.76 173.218 60.9853 172.807 60.5C172.415 60.0147 171.799 59.772 170.959 59.772C169.933 59.772 169.111 60.0987 168.495 60.752C167.898 61.3867 167.599 62.236 167.599 63.3V69.432C167.599 70.6267 167.011 71.224 165.835 71.224ZM186.862 76.32C185.854 76.32 184.874 76.2267 183.922 76.04C182.989 75.8533 182.14 75.564 181.374 75.172C181.02 74.9853 180.777 74.7613 180.646 74.5C180.534 74.2387 180.497 73.968 180.534 73.688C180.59 73.4267 180.702 73.1933 180.87 72.988C181.057 72.7827 181.281 72.6427 181.542 72.568C181.804 72.4933 182.074 72.5307 182.354 72.68C183.176 73.0907 183.95 73.352 184.678 73.464C185.425 73.5947 186.06 73.66 186.582 73.66C187.833 73.66 188.766 73.352 189.382 72.736C190.017 72.1387 190.334 71.2427 190.334 70.048V67.528H190.586C190.306 68.48 189.718 69.2453 188.822 69.824C187.945 70.384 186.946 70.664 185.826 70.664C184.594 70.664 183.521 70.384 182.606 69.824C181.692 69.2453 180.982 68.4427 180.478 67.416C179.974 66.3893 179.722 65.1947 179.722 63.832C179.722 62.8053 179.862 61.8813 180.142 61.06C180.441 60.22 180.852 59.5013 181.374 58.904C181.916 58.3067 182.56 57.8493 183.306 57.532C184.072 57.196 184.912 57.028 185.826 57.028C186.984 57.028 187.992 57.3173 188.85 57.896C189.728 58.456 190.297 59.2027 190.558 60.136L190.278 60.836V58.848C190.278 58.2693 190.428 57.8307 190.726 57.532C191.044 57.2333 191.473 57.084 192.014 57.084C192.574 57.084 193.004 57.2333 193.302 57.532C193.601 57.8307 193.75 58.2693 193.75 58.848V69.628C193.75 71.8493 193.162 73.52 191.986 74.64C190.81 75.76 189.102 76.32 186.862 76.32ZM186.778 68.004C187.506 68.004 188.132 67.836 188.654 67.5C189.177 67.164 189.578 66.688 189.858 66.072C190.157 65.4373 190.306 64.6907 190.306 63.832C190.306 62.544 189.989 61.536 189.354 60.808C188.72 60.0613 187.861 59.688 186.778 59.688C186.05 59.688 185.425 59.856 184.902 60.192C184.38 60.528 183.969 61.004 183.67 61.62C183.39 62.236 183.25 62.9733 183.25 63.832C183.25 65.12 183.568 66.1373 184.202 66.884C184.837 67.6307 185.696 68.004 186.778 68.004ZM199.113 71.196C198.553 71.196 198.123 71.028 197.825 70.692C197.526 70.356 197.377 69.8893 197.377 69.292V59.016C197.377 58.4 197.526 57.9333 197.825 57.616C198.123 57.28 198.553 57.112 199.113 57.112C199.673 57.112 200.102 57.28 200.401 57.616C200.718 57.9333 200.877 58.4 200.877 59.016V69.292C200.877 69.8893 200.727 70.356 200.429 70.692C200.13 71.028 199.691 71.196 199.113 71.196ZM199.113 54.508C198.459 54.508 197.946 54.3493 197.573 54.032C197.218 53.696 197.041 53.2387 197.041 52.66C197.041 52.0627 197.218 51.6053 197.573 51.288C197.946 50.9707 198.459 50.812 199.113 50.812C199.785 50.812 200.298 50.9707 200.653 51.288C201.007 51.6053 201.185 52.0627 201.185 52.66C201.185 53.2387 201.007 53.696 200.653 54.032C200.298 54.3493 199.785 54.508 199.113 54.508ZM205.353 71C204.999 71 204.7 70.916 204.457 70.748C204.233 70.5613 204.084 70.328 204.009 70.048C203.935 69.768 203.935 69.4693 204.009 69.152C204.103 68.816 204.28 68.4987 204.541 68.2L211.793 59.1V59.94H205.185C204.756 59.94 204.42 59.828 204.177 59.604C203.953 59.3613 203.841 59.0347 203.841 58.624C203.841 58.1947 203.953 57.868 204.177 57.644C204.42 57.42 204.756 57.308 205.185 57.308H213.473C213.884 57.308 214.22 57.4013 214.481 57.588C214.743 57.756 214.911 57.98 214.985 58.26C215.079 58.54 215.088 58.8387 215.013 59.156C214.939 59.4733 214.771 59.772 214.509 60.052L207.117 69.292V68.368H214.117C215.013 68.368 215.461 68.8067 215.461 69.684C215.461 70.0947 215.34 70.4213 215.097 70.664C214.873 70.888 214.547 71 214.117 71H205.353ZM219.511 71.224C218.951 71.224 218.522 71.0747 218.223 70.776C217.924 70.4587 217.775 70.0107 217.775 69.432V58.848C217.775 58.2693 217.924 57.8307 218.223 57.532C218.522 57.2333 218.942 57.084 219.483 57.084C220.024 57.084 220.444 57.2333 220.743 57.532C221.042 57.8307 221.191 58.2693 221.191 58.848V60.752L220.883 60.052C221.294 59.0627 221.928 58.316 222.787 57.812C223.664 57.2893 224.654 57.028 225.755 57.028C226.856 57.028 227.762 57.2333 228.471 57.644C229.18 58.0547 229.712 58.68 230.067 59.52C230.422 60.3413 230.599 61.3867 230.599 62.656V69.432C230.599 70.0107 230.45 70.4587 230.151 70.776C229.852 71.0747 229.423 71.224 228.863 71.224C228.303 71.224 227.864 71.0747 227.547 70.776C227.248 70.4587 227.099 70.0107 227.099 69.432V62.824C227.099 61.76 226.894 60.9853 226.483 60.5C226.091 60.0147 225.475 59.772 224.635 59.772C223.608 59.772 222.787 60.0987 222.171 60.752C221.574 61.3867 221.275 62.236 221.275 63.3V69.432C221.275 70.6267 220.687 71.224 219.511 71.224ZM235.89 71.196C235.33 71.196 234.901 71.028 234.602 70.692C234.303 70.356 234.154 69.8893 234.154 69.292V59.016C234.154 58.4 234.303 57.9333 234.602 57.616C234.901 57.28 235.33 57.112 235.89 57.112C236.45 57.112 236.879 57.28 237.178 57.616C237.495 57.9333 237.654 58.4 237.654 59.016V69.292C237.654 69.8893 237.505 70.356 237.206 70.692C236.907 71.028 236.469 71.196 235.89 71.196ZM235.89 54.508C235.237 54.508 234.723 54.3493 234.35 54.032C233.995 53.696 233.818 53.2387 233.818 52.66C233.818 52.0627 233.995 51.6053 234.35 51.288C234.723 50.9707 235.237 50.812 235.89 50.812C236.562 50.812 237.075 50.9707 237.43 51.288C237.785 51.6053 237.962 52.0627 237.962 52.66C237.962 53.2387 237.785 53.696 237.43 54.032C237.075 54.3493 236.562 54.508 235.89 54.508ZM253.904 71.28C253.102 71.28 252.252 71.196 251.356 71.028C250.46 70.86 249.658 70.5707 248.948 70.16C248.65 69.9733 248.435 69.7587 248.304 69.516C248.192 69.2547 248.146 69.0027 248.164 68.76C248.202 68.4987 248.295 68.2747 248.444 68.088C248.612 67.9013 248.818 67.78 249.06 67.724C249.322 67.668 249.602 67.7147 249.9 67.864C250.647 68.2187 251.347 68.4707 252 68.62C252.654 68.7507 253.298 68.816 253.932 68.816C254.828 68.816 255.491 68.6667 255.92 68.368C256.368 68.0507 256.592 67.64 256.592 67.136C256.592 66.7067 256.443 66.38 256.144 66.156C255.864 65.9133 255.435 65.736 254.856 65.624L252.056 65.092C250.899 64.868 250.012 64.448 249.396 63.832C248.799 63.1973 248.5 62.3853 248.5 61.396C248.5 60.5 248.743 59.7253 249.228 59.072C249.732 58.4187 250.423 57.9147 251.3 57.56C252.178 57.2053 253.186 57.028 254.324 57.028C255.146 57.028 255.911 57.1213 256.62 57.308C257.348 57.476 258.048 57.7467 258.72 58.12C259 58.2693 259.187 58.4653 259.28 58.708C259.392 58.9507 259.42 59.2027 259.364 59.464C259.308 59.7067 259.196 59.9307 259.028 60.136C258.86 60.3227 258.646 60.444 258.384 60.5C258.142 60.5373 257.862 60.4813 257.544 60.332C256.966 60.0333 256.406 59.8187 255.864 59.688C255.342 59.5573 254.838 59.492 254.352 59.492C253.438 59.492 252.756 59.6507 252.308 59.968C251.879 60.2853 251.664 60.7053 251.664 61.228C251.664 61.62 251.795 61.9467 252.056 62.208C252.318 62.4693 252.719 62.6467 253.26 62.74L256.06 63.272C257.274 63.496 258.188 63.9067 258.804 64.504C259.439 65.1013 259.756 65.904 259.756 66.912C259.756 68.2747 259.224 69.348 258.16 70.132C257.096 70.8973 255.678 71.28 253.904 71.28ZM267.072 71.28C266.083 71.28 265.196 71.0933 264.412 70.72C263.647 70.328 263.04 69.8053 262.592 69.152C262.163 68.4987 261.948 67.7613 261.948 66.94C261.948 65.932 262.209 65.1387 262.732 64.56C263.255 63.9627 264.104 63.5333 265.28 63.272C266.456 63.0107 268.033 62.88 270.012 62.88H271.412V64.896H270.04C268.883 64.896 267.959 64.952 267.268 65.064C266.577 65.176 266.083 65.372 265.784 65.652C265.504 65.9133 265.364 66.2867 265.364 66.772C265.364 67.388 265.579 67.892 266.008 68.284C266.437 68.676 267.035 68.872 267.8 68.872C268.416 68.872 268.957 68.732 269.424 68.452C269.909 68.1533 270.292 67.752 270.572 67.248C270.852 66.744 270.992 66.1653 270.992 65.512V62.292C270.992 61.3587 270.787 60.6867 270.376 60.276C269.965 59.8653 269.275 59.66 268.304 59.66C267.763 59.66 267.175 59.7253 266.54 59.856C265.924 59.9867 265.271 60.2107 264.58 60.528C264.225 60.696 263.908 60.7427 263.628 60.668C263.367 60.5933 263.161 60.444 263.012 60.22C262.863 59.9773 262.788 59.716 262.788 59.436C262.788 59.156 262.863 58.8853 263.012 58.624C263.161 58.344 263.413 58.1387 263.768 58.008C264.627 57.6533 265.448 57.4013 266.232 57.252C267.035 57.1027 267.763 57.028 268.416 57.028C269.76 57.028 270.861 57.2333 271.72 57.644C272.597 58.0547 273.251 58.68 273.68 59.52C274.109 60.3413 274.324 61.4053 274.324 62.712V69.432C274.324 70.0107 274.184 70.4587 273.904 70.776C273.624 71.0747 273.223 71.224 272.7 71.224C272.177 71.224 271.767 71.0747 271.468 70.776C271.188 70.4587 271.048 70.0107 271.048 69.432V68.088H271.272C271.141 68.7413 270.88 69.3107 270.488 69.796C270.115 70.2627 269.639 70.6267 269.06 70.888C268.481 71.1493 267.819 71.28 267.072 71.28ZM279.669 71.224C279.109 71.224 278.679 71.0747 278.381 70.776C278.082 70.4587 277.933 70.0107 277.933 69.432V58.848C277.933 58.2693 278.082 57.8307 278.381 57.532C278.679 57.2333 279.099 57.084 279.641 57.084C280.182 57.084 280.602 57.2333 280.901 57.532C281.199 57.8307 281.349 58.2693 281.349 58.848V60.892L281.041 60.052C281.414 59.1187 281.993 58.3813 282.777 57.84C283.561 57.2987 284.494 57.028 285.577 57.028C286.678 57.028 287.583 57.2893 288.293 57.812C289.002 58.3347 289.497 59.1373 289.777 60.22H289.385C289.758 59.2307 290.374 58.456 291.233 57.896C292.091 57.3173 293.081 57.028 294.201 57.028C295.246 57.028 296.105 57.2333 296.777 57.644C297.467 58.0547 297.981 58.68 298.317 59.52C298.653 60.3413 298.821 61.3867 298.821 62.656V69.432C298.821 70.0107 298.662 70.4587 298.345 70.776C298.046 71.0747 297.617 71.224 297.057 71.224C296.497 71.224 296.067 71.0747 295.769 70.776C295.47 70.4587 295.321 70.0107 295.321 69.432V62.796C295.321 61.7507 295.143 60.9853 294.789 60.5C294.453 60.0147 293.874 59.772 293.053 59.772C292.138 59.772 291.419 60.0987 290.897 60.752C290.374 61.3867 290.113 62.2733 290.113 63.412V69.432C290.113 70.0107 289.963 70.4587 289.665 70.776C289.366 71.0747 288.937 71.224 288.377 71.224C287.817 71.224 287.378 71.0747 287.061 70.776C286.762 70.4587 286.613 70.0107 286.613 69.432V62.796C286.613 61.7507 286.435 60.9853 286.081 60.5C285.745 60.0147 285.175 59.772 284.373 59.772C283.458 59.772 282.739 60.0987 282.217 60.752C281.694 61.3867 281.433 62.2733 281.433 63.412V69.432C281.433 70.6267 280.845 71.224 279.669 71.224ZM306.939 71.28C305.95 71.28 305.063 71.0933 304.279 70.72C303.514 70.328 302.907 69.8053 302.459 69.152C302.03 68.4987 301.815 67.7613 301.815 66.94C301.815 65.932 302.077 65.1387 302.599 64.56C303.122 63.9627 303.971 63.5333 305.147 63.272C306.323 63.0107 307.901 62.88 309.879 62.88H311.279V64.896H309.907C308.75 64.896 307.826 64.952 307.135 65.064C306.445 65.176 305.95 65.372 305.651 65.652C305.371 65.9133 305.231 66.2867 305.231 66.772C305.231 67.388 305.446 67.892 305.875 68.284C306.305 68.676 306.902 68.872 307.667 68.872C308.283 68.872 308.825 68.732 309.291 68.452C309.777 68.1533 310.159 67.752 310.439 67.248C310.719 66.744 310.859 66.1653 310.859 65.512V62.292C310.859 61.3587 310.654 60.6867 310.243 60.276C309.833 59.8653 309.142 59.66 308.171 59.66C307.63 59.66 307.042 59.7253 306.407 59.856C305.791 59.9867 305.138 60.2107 304.447 60.528C304.093 60.696 303.775 60.7427 303.495 60.668C303.234 60.5933 303.029 60.444 302.879 60.22C302.73 59.9773 302.655 59.716 302.655 59.436C302.655 59.156 302.73 58.8853 302.879 58.624C303.029 58.344 303.281 58.1387 303.635 58.008C304.494 57.6533 305.315 57.4013 306.099 57.252C306.902 57.1027 307.63 57.028 308.283 57.028C309.627 57.028 310.729 57.2333 311.587 57.644C312.465 58.0547 313.118 58.68 313.547 59.52C313.977 60.3413 314.191 61.4053 314.191 62.712V69.432C314.191 70.0107 314.051 70.4587 313.771 70.776C313.491 71.0747 313.09 71.224 312.567 71.224C312.045 71.224 311.634 71.0747 311.335 70.776C311.055 70.4587 310.915 70.0107 310.915 69.432V68.088H311.139C311.009 68.7413 310.747 69.3107 310.355 69.796C309.982 70.2627 309.506 70.6267 308.927 70.888C308.349 71.1493 307.686 71.28 306.939 71.28ZM319.536 71.224C318.957 71.224 318.509 71.0747 318.192 70.776C317.893 70.4587 317.744 70.0107 317.744 69.432V58.848C317.744 58.2693 317.893 57.8307 318.192 57.532C318.49 57.2333 318.91 57.084 319.452 57.084C319.993 57.084 320.413 57.2333 320.712 57.532C321.01 57.8307 321.16 58.2693 321.16 58.848V60.612H320.88C321.141 59.492 321.654 58.6427 322.42 58.064C323.185 57.4853 324.202 57.14 325.472 57.028C325.864 56.9907 326.172 57.0933 326.396 57.336C326.638 57.56 326.778 57.9147 326.816 58.4C326.853 58.8667 326.741 59.2493 326.48 59.548C326.237 59.828 325.864 59.996 325.36 60.052L324.744 60.108C323.605 60.22 322.746 60.5747 322.168 61.172C321.589 61.7507 321.3 62.572 321.3 63.636V69.432C321.3 70.0107 321.15 70.4587 320.852 70.776C320.553 71.0747 320.114 71.224 319.536 71.224ZM333.08 71.28C332.091 71.28 331.204 71.0933 330.42 70.72C329.655 70.328 329.048 69.8053 328.6 69.152C328.171 68.4987 327.956 67.7613 327.956 66.94C327.956 65.932 328.217 65.1387 328.74 64.56C329.263 63.9627 330.112 63.5333 331.288 63.272C332.464 63.0107 334.041 62.88 336.02 62.88H337.42V64.896H336.048C334.891 64.896 333.967 64.952 333.276 65.064C332.585 65.176 332.091 65.372 331.792 65.652C331.512 65.9133 331.372 66.2867 331.372 66.772C331.372 67.388 331.587 67.892 332.016 68.284C332.445 68.676 333.043 68.872 333.808 68.872C334.424 68.872 334.965 68.732 335.432 68.452C335.917 68.1533 336.3 67.752 336.58 67.248C336.86 66.744 337 66.1653 337 65.512V62.292C337 61.3587 336.795 60.6867 336.384 60.276C335.973 59.8653 335.283 59.66 334.312 59.66C333.771 59.66 333.183 59.7253 332.548 59.856C331.932 59.9867 331.279 60.2107 330.588 60.528C330.233 60.696 329.916 60.7427 329.636 60.668C329.375 60.5933 329.169 60.444 329.02 60.22C328.871 59.9773 328.796 59.716 328.796 59.436C328.796 59.156 328.871 58.8853 329.02 58.624C329.169 58.344 329.421 58.1387 329.776 58.008C330.635 57.6533 331.456 57.4013 332.24 57.252C333.043 57.1027 333.771 57.028 334.424 57.028C335.768 57.028 336.869 57.2333 337.728 57.644C338.605 58.0547 339.259 58.68 339.688 59.52C340.117 60.3413 340.332 61.4053 340.332 62.712V69.432C340.332 70.0107 340.192 70.4587 339.912 70.776C339.632 71.0747 339.231 71.224 338.708 71.224C338.185 71.224 337.775 71.0747 337.476 70.776C337.196 70.4587 337.056 70.0107 337.056 69.432V68.088H337.28C337.149 68.7413 336.888 69.3107 336.496 69.796C336.123 70.2627 335.647 70.6267 335.068 70.888C334.489 71.1493 333.827 71.28 333.08 71.28ZM348.56 71.28C347.011 71.28 345.844 70.8413 345.06 69.964C344.276 69.068 343.884 67.7613 343.884 66.044V52.8C343.884 52.2213 344.034 51.7827 344.332 51.484C344.631 51.1853 345.06 51.036 345.62 51.036C346.18 51.036 346.61 51.1853 346.908 51.484C347.226 51.7827 347.384 52.2213 347.384 52.8V65.876C347.384 66.7347 347.562 67.3693 347.916 67.78C348.29 68.1907 348.812 68.396 349.484 68.396C349.634 68.396 349.774 68.396 349.904 68.396C350.035 68.3773 350.166 68.3587 350.296 68.34C350.558 68.3027 350.735 68.3773 350.828 68.564C350.922 68.732 350.968 69.0867 350.968 69.628C350.968 70.0947 350.875 70.4587 350.688 70.72C350.502 70.9813 350.194 71.14 349.764 71.196C349.578 71.2147 349.382 71.2333 349.176 71.252C348.971 71.2707 348.766 71.28 348.56 71.28ZM354.562 71.196C354.002 71.196 353.573 71.028 353.274 70.692C352.975 70.356 352.826 69.8893 352.826 69.292V59.016C352.826 58.4 352.975 57.9333 353.274 57.616C353.573 57.28 354.002 57.112 354.562 57.112C355.122 57.112 355.551 57.28 355.85 57.616C356.167 57.9333 356.326 58.4 356.326 59.016V69.292C356.326 69.8893 356.177 70.356 355.878 70.692C355.579 71.028 355.141 71.196 354.562 71.196ZM354.562 54.508C353.909 54.508 353.395 54.3493 353.022 54.032C352.667 53.696 352.49 53.2387 352.49 52.66C352.49 52.0627 352.667 51.6053 353.022 51.288C353.395 50.9707 353.909 50.812 354.562 50.812C355.234 50.812 355.747 50.9707 356.102 51.288C356.457 51.6053 356.634 52.0627 356.634 52.66C356.634 53.2387 356.457 53.696 356.102 54.032C355.747 54.3493 355.234 54.508 354.562 54.508ZM361.755 71.224C361.176 71.224 360.728 71.0747 360.411 70.776C360.112 70.4587 359.963 70.0107 359.963 69.432V58.848C359.963 58.2693 360.112 57.8307 360.411 57.532C360.709 57.2333 361.129 57.084 361.671 57.084C362.212 57.084 362.632 57.2333 362.931 57.532C363.229 57.8307 363.379 58.2693 363.379 58.848V60.612H363.099C363.36 59.492 363.873 58.6427 364.639 58.064C365.404 57.4853 366.421 57.14 367.691 57.028C368.083 56.9907 368.391 57.0933 368.615 57.336C368.857 57.56 368.997 57.9147 369.035 58.4C369.072 58.8667 368.96 59.2493 368.699 59.548C368.456 59.828 368.083 59.996 367.579 60.052L366.963 60.108C365.824 60.22 364.965 60.5747 364.387 61.172C363.808 61.7507 363.519 62.572 363.519 63.636V69.432C363.519 70.0107 363.369 70.4587 363.071 70.776C362.772 71.0747 362.333 71.224 361.755 71.224ZM376.953 71.28C375.534 71.28 374.302 70.9907 373.257 70.412C372.211 69.8333 371.399 69.012 370.821 67.948C370.242 66.8653 369.953 65.596 369.953 64.14C369.953 63.0387 370.111 62.0587 370.429 61.2C370.765 60.3227 371.241 59.576 371.857 58.96C372.473 58.3253 373.21 57.8493 374.069 57.532C374.927 57.196 375.889 57.028 376.953 57.028C378.371 57.028 379.603 57.3173 380.649 57.896C381.694 58.4747 382.506 59.296 383.085 60.36C383.663 61.424 383.953 62.684 383.953 64.14C383.953 65.2413 383.785 66.2307 383.449 67.108C383.131 67.9853 382.665 68.7413 382.049 69.376C381.433 69.992 380.695 70.468 379.837 70.804C378.978 71.1213 378.017 71.28 376.953 71.28ZM376.953 68.62C377.643 68.62 378.25 68.452 378.773 68.116C379.295 67.78 379.697 67.2853 379.977 66.632C380.275 65.96 380.425 65.1293 380.425 64.14C380.425 62.6467 380.107 61.536 379.473 60.808C378.838 60.0613 377.998 59.688 376.953 59.688C376.262 59.688 375.655 59.856 375.133 60.192C374.61 60.5093 374.199 61.004 373.901 61.676C373.621 62.3293 373.481 63.1507 373.481 64.14C373.481 65.6147 373.798 66.7347 374.433 67.5C375.067 68.2467 375.907 68.62 376.953 68.62ZM398.237 76.264C397.677 76.264 397.248 76.1147 396.949 75.816C396.651 75.5173 396.501 75.0787 396.501 74.5V68.2H396.809C396.511 69.1147 395.932 69.8613 395.073 70.44C394.233 71 393.244 71.28 392.105 71.28C390.911 71.28 389.856 70.9907 388.941 70.412C388.045 69.8333 387.345 69.012 386.841 67.948C386.337 66.8653 386.085 65.596 386.085 64.14C386.085 62.6653 386.337 61.4053 386.841 60.36C387.345 59.296 388.045 58.4747 388.941 57.896C389.856 57.3173 390.911 57.028 392.105 57.028C393.263 57.028 394.271 57.3173 395.129 57.896C395.988 58.4747 396.557 59.24 396.837 60.192L396.529 61.032V58.848C396.529 58.2693 396.679 57.8307 396.977 57.532C397.276 57.2333 397.705 57.084 398.265 57.084C398.825 57.084 399.255 57.2333 399.553 57.532C399.852 57.8307 400.001 58.2693 400.001 58.848V74.5C400.001 75.0787 399.843 75.5173 399.525 75.816C399.227 76.1147 398.797 76.264 398.237 76.264ZM393.085 68.62C393.776 68.62 394.383 68.452 394.905 68.116C395.428 67.78 395.829 67.2853 396.109 66.632C396.408 65.96 396.557 65.1293 396.557 64.14C396.557 62.6467 396.24 61.536 395.605 60.808C394.971 60.0613 394.131 59.688 393.085 59.688C392.395 59.688 391.788 59.856 391.265 60.192C390.743 60.5093 390.332 61.004 390.033 61.676C389.753 62.3293 389.613 63.1507 389.613 64.14C389.613 65.6147 389.931 66.7347 390.565 67.5C391.2 68.2467 392.04 68.62 393.085 68.62ZM195.989 111.28C194.832 111.28 193.815 110.991 192.937 110.412C192.079 109.833 191.509 109.059 191.229 108.088L191.537 107.388V109.432C191.537 110.011 191.388 110.459 191.089 110.776C190.791 111.075 190.371 111.224 189.829 111.224C189.269 111.224 188.84 111.075 188.541 110.776C188.243 110.459 188.093 110.011 188.093 109.432V92.8C188.093 92.2213 188.243 91.7827 188.541 91.484C188.84 91.1853 189.269 91.036 189.829 91.036C190.389 91.036 190.819 91.1853 191.117 91.484C191.435 91.7827 191.593 92.2213 191.593 92.8V100.08H191.257C191.556 99.1653 192.135 98.428 192.993 97.868C193.852 97.308 194.851 97.028 195.989 97.028C197.203 97.028 198.257 97.3173 199.153 97.896C200.049 98.4747 200.749 99.296 201.253 100.36C201.757 101.405 202.009 102.665 202.009 104.14C202.009 105.596 201.757 106.865 201.253 107.948C200.749 109.012 200.04 109.833 199.125 110.412C198.229 110.991 197.184 111.28 195.989 111.28ZM195.009 108.62C195.7 108.62 196.307 108.452 196.829 108.116C197.352 107.78 197.753 107.285 198.033 106.632C198.332 105.96 198.481 105.129 198.481 104.14C198.481 102.647 198.164 101.536 197.529 100.808C196.895 100.061 196.055 99.688 195.009 99.688C194.319 99.688 193.712 99.856 193.189 100.192C192.667 100.509 192.256 101.004 191.957 101.676C191.677 102.329 191.537 103.151 191.537 104.14C191.537 105.615 191.855 106.735 192.489 107.5C193.124 108.247 193.964 108.62 195.009 108.62ZM211.127 111.28C209.708 111.28 208.476 110.991 207.431 110.412C206.385 109.833 205.573 109.012 204.995 107.948C204.416 106.865 204.127 105.596 204.127 104.14C204.127 103.039 204.285 102.059 204.603 101.2C204.939 100.323 205.415 99.576 206.031 98.96C206.647 98.3253 207.384 97.8493 208.243 97.532C209.101 97.196 210.063 97.028 211.127 97.028C212.545 97.028 213.777 97.3173 214.823 97.896C215.868 98.4747 216.68 99.296 217.259 100.36C217.837 101.424 218.127 102.684 218.127 104.14C218.127 105.241 217.959 106.231 217.623 107.108C217.305 107.985 216.839 108.741 216.223 109.376C215.607 109.992 214.869 110.468 214.011 110.804C213.152 111.121 212.191 111.28 211.127 111.28ZM211.127 108.62C211.817 108.62 212.424 108.452 212.947 108.116C213.469 107.78 213.871 107.285 214.151 106.632C214.449 105.96 214.599 105.129 214.599 104.14C214.599 102.647 214.281 101.536 213.647 100.808C213.012 100.061 212.172 99.688 211.127 99.688C210.436 99.688 209.829 99.856 209.307 100.192C208.784 100.509 208.373 101.004 208.075 101.676C207.795 102.329 207.655 103.151 207.655 104.14C207.655 105.615 207.972 106.735 208.607 107.5C209.241 108.247 210.081 108.62 211.127 108.62ZM226.027 111.28C225.225 111.28 224.375 111.196 223.479 111.028C222.583 110.86 221.781 110.571 221.071 110.16C220.773 109.973 220.558 109.759 220.427 109.516C220.315 109.255 220.269 109.003 220.287 108.76C220.325 108.499 220.418 108.275 220.567 108.088C220.735 107.901 220.941 107.78 221.183 107.724C221.445 107.668 221.725 107.715 222.023 107.864C222.77 108.219 223.47 108.471 224.123 108.62C224.777 108.751 225.421 108.816 226.055 108.816C226.951 108.816 227.614 108.667 228.043 108.368C228.491 108.051 228.715 107.64 228.715 107.136C228.715 106.707 228.566 106.38 228.267 106.156C227.987 105.913 227.558 105.736 226.979 105.624L224.179 105.092C223.022 104.868 222.135 104.448 221.519 103.832C220.922 103.197 220.623 102.385 220.623 101.396C220.623 100.5 220.866 99.7253 221.351 99.072C221.855 98.4187 222.546 97.9147 223.423 97.56C224.301 97.2053 225.309 97.028 226.447 97.028C227.269 97.028 228.034 97.1213 228.743 97.308C229.471 97.476 230.171 97.7467 230.843 98.12C231.123 98.2693 231.31 98.4653 231.403 98.708C231.515 98.9507 231.543 99.2027 231.487 99.464C231.431 99.7067 231.319 99.9307 231.151 100.136C230.983 100.323 230.769 100.444 230.507 100.5C230.265 100.537 229.985 100.481 229.667 100.332C229.089 100.033 228.529 99.8187 227.987 99.688C227.465 99.5573 226.961 99.492 226.475 99.492C225.561 99.492 224.879 99.6507 224.431 99.968C224.002 100.285 223.787 100.705 223.787 101.228C223.787 101.62 223.918 101.947 224.179 102.208C224.441 102.469 224.842 102.647 225.383 102.74L228.183 103.272C229.397 103.496 230.311 103.907 230.927 104.504C231.562 105.101 231.879 105.904 231.879 106.912C231.879 108.275 231.347 109.348 230.283 110.132C229.219 110.897 227.801 111.28 226.027 111.28ZM236.423 111.224C235.863 111.224 235.434 111.075 235.135 110.776C234.837 110.459 234.687 110.011 234.687 109.432V92.8C234.687 92.2213 234.837 91.7827 235.135 91.484C235.434 91.1853 235.863 91.036 236.423 91.036C236.983 91.036 237.413 91.1853 237.711 91.484C238.029 91.7827 238.187 92.2213 238.187 92.8V100.052H237.795C238.206 99.0627 238.841 98.316 239.699 97.812C240.577 97.2893 241.566 97.028 242.667 97.028C243.769 97.028 244.674 97.2333 245.383 97.644C246.093 98.0547 246.625 98.68 246.979 99.52C247.334 100.341 247.511 101.387 247.511 102.656V109.432C247.511 110.011 247.362 110.459 247.063 110.776C246.765 111.075 246.335 111.224 245.775 111.224C245.215 111.224 244.777 111.075 244.459 110.776C244.161 110.459 244.011 110.011 244.011 109.432V102.824C244.011 101.76 243.806 100.985 243.395 100.5C243.003 100.015 242.387 99.772 241.547 99.772C240.521 99.772 239.699 100.099 239.083 100.752C238.486 101.387 238.187 102.236 238.187 103.3V109.432C238.187 110.627 237.599 111.224 236.423 111.224ZM262.462 116.264C261.902 116.264 261.473 116.115 261.174 115.816C260.875 115.517 260.726 115.079 260.726 114.5V108.2H261.034C260.735 109.115 260.157 109.861 259.298 110.44C258.458 111 257.469 111.28 256.33 111.28C255.135 111.28 254.081 110.991 253.166 110.412C252.27 109.833 251.57 109.012 251.066 107.948C250.562 106.865 250.31 105.596 250.31 104.14C250.31 102.665 250.562 101.405 251.066 100.36C251.57 99.296 252.27 98.4747 253.166 97.896C254.081 97.3173 255.135 97.028 256.33 97.028C257.487 97.028 258.495 97.3173 259.354 97.896C260.213 98.4747 260.782 99.24 261.062 100.192L260.754 101.032V98.848C260.754 98.2693 260.903 97.8307 261.202 97.532C261.501 97.2333 261.93 97.084 262.49 97.084C263.05 97.084 263.479 97.2333 263.778 97.532C264.077 97.8307 264.226 98.2693 264.226 98.848V114.5C264.226 115.079 264.067 115.517 263.75 115.816C263.451 116.115 263.022 116.264 262.462 116.264ZM257.31 108.62C258.001 108.62 258.607 108.452 259.13 108.116C259.653 107.78 260.054 107.285 260.334 106.632C260.633 105.96 260.782 105.129 260.782 104.14C260.782 102.647 260.465 101.536 259.83 100.808C259.195 100.061 258.355 99.688 257.31 99.688C256.619 99.688 256.013 99.856 255.49 100.192C254.967 100.509 254.557 101.004 254.258 101.676C253.978 102.329 253.838 103.151 253.838 104.14C253.838 105.615 254.155 106.735 254.79 107.5C255.425 108.247 256.265 108.62 257.31 108.62ZM272.363 111.28C271.374 111.28 270.487 111.093 269.703 110.72C268.938 110.328 268.331 109.805 267.883 109.152C267.454 108.499 267.239 107.761 267.239 106.94C267.239 105.932 267.5 105.139 268.023 104.56C268.546 103.963 269.395 103.533 270.571 103.272C271.747 103.011 273.324 102.88 275.303 102.88H276.703V104.896H275.331C274.174 104.896 273.25 104.952 272.559 105.064C271.868 105.176 271.374 105.372 271.075 105.652C270.795 105.913 270.655 106.287 270.655 106.772C270.655 107.388 270.87 107.892 271.299 108.284C271.728 108.676 272.326 108.872 273.091 108.872C273.707 108.872 274.248 108.732 274.715 108.452C275.2 108.153 275.583 107.752 275.863 107.248C276.143 106.744 276.283 106.165 276.283 105.512V102.292C276.283 101.359 276.078 100.687 275.667 100.276C275.256 99.8653 274.566 99.66 273.595 99.66C273.054 99.66 272.466 99.7253 271.831 99.856C271.215 99.9867 270.562 100.211 269.871 100.528C269.516 100.696 269.199 100.743 268.919 100.668C268.658 100.593 268.452 100.444 268.303 100.22C268.154 99.9773 268.079 99.716 268.079 99.436C268.079 99.156 268.154 98.8853 268.303 98.624C268.452 98.344 268.704 98.1387 269.059 98.008C269.918 97.6533 270.739 97.4013 271.523 97.252C272.326 97.1027 273.054 97.028 273.707 97.028C275.051 97.028 276.152 97.2333 277.011 97.644C277.888 98.0547 278.542 98.68 278.971 99.52C279.4 100.341 279.615 101.405 279.615 102.712V109.432C279.615 110.011 279.475 110.459 279.195 110.776C278.915 111.075 278.514 111.224 277.991 111.224C277.468 111.224 277.058 111.075 276.759 110.776C276.479 110.459 276.339 110.011 276.339 109.432V108.088H276.563C276.432 108.741 276.171 109.311 275.779 109.796C275.406 110.263 274.93 110.627 274.351 110.888C273.772 111.149 273.11 111.28 272.363 111.28ZM284.96 111.224C284.381 111.224 283.933 111.075 283.616 110.776C283.317 110.459 283.168 110.011 283.168 109.432V98.848C283.168 98.2693 283.317 97.8307 283.616 97.532C283.914 97.2333 284.334 97.084 284.876 97.084C285.417 97.084 285.837 97.2333 286.136 97.532C286.434 97.8307 286.584 98.2693 286.584 98.848V100.612H286.304C286.565 99.492 287.078 98.6427 287.844 98.064C288.609 97.4853 289.626 97.14 290.896 97.028C291.288 96.9907 291.596 97.0933 291.82 97.336C292.062 97.56 292.202 97.9147 292.24 98.4C292.277 98.8667 292.165 99.2493 291.904 99.548C291.661 99.828 291.288 99.996 290.784 100.052L290.168 100.108C289.029 100.22 288.17 100.575 287.592 101.172C287.013 101.751 286.724 102.572 286.724 103.636V109.432C286.724 110.011 286.574 110.459 286.276 110.776C285.977 111.075 285.538 111.224 284.96 111.224ZM295.869 111.196C295.309 111.196 294.879 111.028 294.581 110.692C294.282 110.356 294.133 109.889 294.133 109.292V99.016C294.133 98.4 294.282 97.9333 294.581 97.616C294.879 97.28 295.309 97.112 295.869 97.112C296.429 97.112 296.858 97.28 297.157 97.616C297.474 97.9333 297.633 98.4 297.633 99.016V109.292C297.633 109.889 297.483 110.356 297.185 110.692C296.886 111.028 296.447 111.196 295.869 111.196ZM295.869 94.508C295.215 94.508 294.702 94.3493 294.329 94.032C293.974 93.696 293.797 93.2387 293.797 92.66C293.797 92.0627 293.974 91.6053 294.329 91.288C294.702 90.9707 295.215 90.812 295.869 90.812C296.541 90.812 297.054 90.9707 297.409 91.288C297.763 91.6053 297.941 92.0627 297.941 92.66C297.941 93.2387 297.763 93.696 297.409 94.032C297.054 94.3493 296.541 94.508 295.869 94.508ZM303.005 111.224C302.445 111.224 302.016 111.075 301.717 110.776C301.419 110.459 301.269 110.011 301.269 109.432V98.848C301.269 98.2693 301.419 97.8307 301.717 97.532C302.016 97.2333 302.436 97.084 302.977 97.084C303.519 97.084 303.939 97.2333 304.237 97.532C304.536 97.8307 304.685 98.2693 304.685 98.848V100.752L304.377 100.052C304.788 99.0627 305.423 98.316 306.281 97.812C307.159 97.2893 308.148 97.028 309.249 97.028C310.351 97.028 311.256 97.2333 311.965 97.644C312.675 98.0547 313.207 98.68 313.561 99.52C313.916 100.341 314.093 101.387 314.093 102.656V109.432C314.093 110.011 313.944 110.459 313.645 110.776C313.347 111.075 312.917 111.224 312.357 111.224C311.797 111.224 311.359 111.075 311.041 110.776C310.743 110.459 310.593 110.011 310.593 109.432V102.824C310.593 101.76 310.388 100.985 309.977 100.5C309.585 100.015 308.969 99.772 308.129 99.772C307.103 99.772 306.281 100.099 305.665 100.752C305.068 101.387 304.769 102.236 304.769 103.3V109.432C304.769 110.627 304.181 111.224 303.005 111.224ZM324.032 116.32C323.024 116.32 322.044 116.227 321.092 116.04C320.159 115.853 319.309 115.564 318.544 115.172C318.189 114.985 317.947 114.761 317.816 114.5C317.704 114.239 317.667 113.968 317.704 113.688C317.76 113.427 317.872 113.193 318.04 112.988C318.227 112.783 318.451 112.643 318.712 112.568C318.973 112.493 319.244 112.531 319.524 112.68C320.345 113.091 321.12 113.352 321.848 113.464C322.595 113.595 323.229 113.66 323.752 113.66C325.003 113.66 325.936 113.352 326.552 112.736C327.187 112.139 327.504 111.243 327.504 110.048V107.528H327.756C327.476 108.48 326.888 109.245 325.992 109.824C325.115 110.384 324.116 110.664 322.996 110.664C321.764 110.664 320.691 110.384 319.776 109.824C318.861 109.245 318.152 108.443 317.648 107.416C317.144 106.389 316.892 105.195 316.892 103.832C316.892 102.805 317.032 101.881 317.312 101.06C317.611 100.22 318.021 99.5013 318.544 98.904C319.085 98.3067 319.729 97.8493 320.476 97.532C321.241 97.196 322.081 97.028 322.996 97.028C324.153 97.028 325.161 97.3173 326.02 97.896C326.897 98.456 327.467 99.2027 327.728 100.136L327.448 100.836V98.848C327.448 98.2693 327.597 97.8307 327.896 97.532C328.213 97.2333 328.643 97.084 329.184 97.084C329.744 97.084 330.173 97.2333 330.472 97.532C330.771 97.8307 330.92 98.2693 330.92 98.848V109.628C330.92 111.849 330.332 113.52 329.156 114.64C327.98 115.76 326.272 116.32 324.032 116.32ZM323.948 108.004C324.676 108.004 325.301 107.836 325.824 107.5C326.347 107.164 326.748 106.688 327.028 106.072C327.327 105.437 327.476 104.691 327.476 103.832C327.476 102.544 327.159 101.536 326.524 100.808C325.889 100.061 325.031 99.688 323.948 99.688C323.22 99.688 322.595 99.856 322.072 100.192C321.549 100.528 321.139 101.004 320.84 101.62C320.56 102.236 320.42 102.973 320.42 103.832C320.42 105.12 320.737 106.137 321.372 106.884C322.007 107.631 322.865 108.004 323.948 108.004Z" fill="#060406"/>
<path d="M204.478 31.256C203.88 31.256 203.422 31.0853 203.102 30.744C202.782 30.4027 202.622 29.9333 202.622 29.336V10.104C202.622 9.48533 202.792 9.016 203.134 8.696C203.475 8.35467 203.944 8.184 204.542 8.184C205.075 8.184 205.491 8.29067 205.79 8.504C206.11 8.696 206.398 9.03733 206.654 9.528L214.558 24.152H213.534L221.438 9.528C221.694 9.03733 221.971 8.696 222.27 8.504C222.568 8.29067 222.984 8.184 223.518 8.184C224.115 8.184 224.574 8.35467 224.894 8.696C225.214 9.016 225.374 9.48533 225.374 10.104V29.336C225.374 29.9333 225.214 30.4027 224.894 30.744C224.595 31.0853 224.136 31.256 223.518 31.256C222.92 31.256 222.462 31.0853 222.142 30.744C221.822 30.4027 221.662 29.9333 221.662 29.336V14.52H222.366L215.646 26.776C215.432 27.1387 215.208 27.4053 214.974 27.576C214.739 27.7467 214.419 27.832 214.014 27.832C213.608 27.832 213.278 27.7467 213.022 27.576C212.766 27.384 212.542 27.1173 212.35 26.776L205.566 14.488H206.334V29.336C206.334 29.9333 206.174 30.4027 205.854 30.744C205.555 31.0853 205.096 31.256 204.478 31.256ZM231.939 31.224C231.299 31.224 230.808 31.032 230.467 30.648C230.126 30.264 229.955 29.7307 229.955 29.048V17.304C229.955 16.6 230.126 16.0667 230.467 15.704C230.808 15.32 231.299 15.128 231.939 15.128C232.579 15.128 233.07 15.32 233.411 15.704C233.774 16.0667 233.955 16.6 233.955 17.304V29.048C233.955 29.7307 233.784 30.264 233.443 30.648C233.102 31.032 232.6 31.224 231.939 31.224ZM231.939 12.152C231.192 12.152 230.606 11.9707 230.179 11.608C229.774 11.224 229.571 10.7013 229.571 10.04C229.571 9.35733 229.774 8.83467 230.179 8.472C230.606 8.10933 231.192 7.928 231.939 7.928C232.707 7.928 233.294 8.10933 233.699 8.472C234.104 8.83467 234.307 9.35733 234.307 10.04C234.307 10.7013 234.104 11.224 233.699 11.608C233.294 11.9707 232.707 12.152 231.939 12.152ZM236.191 37.048C235.722 37.0907 235.338 37.016 235.039 36.824C234.741 36.6533 234.538 36.4293 234.431 36.152C234.303 35.8747 234.261 35.5867 234.303 35.288C234.346 34.9893 234.474 34.7227 234.687 34.488C234.879 34.2747 235.146 34.1573 235.487 34.136C236.447 34.0507 237.141 33.7733 237.567 33.304C238.015 32.856 238.239 32.1627 238.239 31.224V17.112C238.239 16.4507 238.41 15.9493 238.751 15.608C239.114 15.2667 239.615 15.096 240.255 15.096C240.895 15.096 241.386 15.2667 241.727 15.608C242.069 15.9493 242.239 16.4507 242.239 17.112V30.872C242.239 32.2373 242.015 33.3573 241.567 34.232C241.141 35.1067 240.479 35.768 239.583 36.216C238.709 36.664 237.578 36.9413 236.191 37.048ZM240.223 12.152C239.477 12.152 238.89 11.9707 238.463 11.608C238.058 11.224 237.855 10.7013 237.855 10.04C237.855 9.35733 238.058 8.83467 238.463 8.472C238.89 8.10933 239.477 7.928 240.223 7.928C240.991 7.928 241.578 8.10933 241.983 8.472C242.389 8.83467 242.591 9.35733 242.591 10.04C242.591 10.7013 242.389 11.224 241.983 11.608C241.578 11.9707 240.991 12.152 240.223 12.152ZM253.529 31.32C251.907 31.32 250.499 30.9893 249.305 30.328C248.11 29.6667 247.182 28.728 246.521 27.512C245.859 26.2747 245.529 24.824 245.529 23.16C245.529 21.9013 245.71 20.7813 246.073 19.8C246.457 18.7973 247.001 17.944 247.705 17.24C248.409 16.5147 249.251 15.9707 250.233 15.608C251.214 15.224 252.313 15.032 253.529 15.032C255.15 15.032 256.558 15.3627 257.753 16.024C258.947 16.6853 259.875 17.624 260.537 18.84C261.198 20.056 261.529 21.496 261.529 23.16C261.529 24.4187 261.337 25.5493 260.953 26.552C260.59 27.5547 260.057 28.4187 259.353 29.144C258.649 29.848 257.806 30.392 256.825 30.776C255.843 31.1387 254.745 31.32 253.529 31.32ZM253.529 28.28C254.318 28.28 255.011 28.088 255.609 27.704C256.206 27.32 256.665 26.7547 256.985 26.008C257.326 25.24 257.497 24.2907 257.497 23.16C257.497 21.4533 257.134 20.184 256.409 19.352C255.683 18.4987 254.723 18.072 253.529 18.072C252.739 18.072 252.046 18.264 251.449 18.648C250.851 19.0107 250.382 19.576 250.041 20.344C249.721 21.0907 249.561 22.0293 249.561 23.16C249.561 24.8453 249.923 26.1253 250.649 27C251.374 27.8533 252.334 28.28 253.529 28.28ZM265.54 31C265.135 31 264.793 30.904 264.516 30.712C264.26 30.4987 264.089 30.232 264.004 29.912C263.919 29.592 263.919 29.2507 264.004 28.888C264.111 28.504 264.313 28.1413 264.612 27.8L272.9 17.4V18.36H265.348C264.857 18.36 264.473 18.232 264.196 17.976C263.94 17.6987 263.812 17.3253 263.812 16.856C263.812 16.3653 263.94 15.992 264.196 15.736C264.473 15.48 264.857 15.352 265.348 15.352L274.82 15.352C275.289 15.352 275.673 15.4587 275.972 15.672C276.271 15.864 276.463 16.12 276.548 16.44C276.655 16.76 276.665 17.1013 276.58 17.464C276.495 17.8267 276.303 18.168 276.004 18.488L267.556 29.048V27.992H275.556C276.58 27.992 277.092 28.4933 277.092 29.496C277.092 29.9653 276.953 30.3387 276.676 30.616C276.42 30.872 276.047 31 275.556 31H265.54ZM285.08 31.32C283.31 31.32 281.976 30.8187 281.08 29.816C280.184 28.792 279.736 27.2987 279.736 25.336V10.2C279.736 9.53867 279.907 9.03733 280.248 8.696C280.59 8.35467 281.08 8.184 281.72 8.184C282.36 8.184 282.851 8.35467 283.192 8.696C283.555 9.03733 283.736 9.53867 283.736 10.2V25.144C283.736 26.1253 283.939 26.8507 284.344 27.32C284.771 27.7893 285.368 28.024 286.136 28.024C286.307 28.024 286.467 28.024 286.616 28.024C286.766 28.0027 286.915 27.9813 287.064 27.96C287.363 27.9173 287.566 28.0027 287.672 28.216C287.779 28.408 287.832 28.8133 287.832 29.432C287.832 29.9653 287.726 30.3813 287.512 30.68C287.299 30.9787 286.947 31.16 286.456 31.224C286.243 31.2453 286.019 31.2667 285.784 31.288C285.55 31.3093 285.315 31.32 285.08 31.32ZM295.107 31.32C293.976 31.32 292.963 31.1067 292.067 30.68C291.192 30.232 290.499 29.6347 289.987 28.888C289.496 28.1413 289.251 27.2987 289.251 26.36C289.251 25.208 289.55 24.3013 290.147 23.64C290.744 22.9573 291.715 22.4667 293.059 22.168C294.403 21.8693 296.206 21.72 298.467 21.72H300.067V24.024H298.499C297.176 24.024 296.12 24.088 295.331 24.216C294.542 24.344 293.976 24.568 293.635 24.888C293.315 25.1867 293.155 25.6133 293.155 26.168C293.155 26.872 293.4 27.448 293.891 27.896C294.382 28.344 295.064 28.568 295.939 28.568C296.643 28.568 297.262 28.408 297.795 28.088C298.35 27.7467 298.787 27.288 299.107 26.712C299.427 26.136 299.587 25.4747 299.587 24.728V21.048C299.587 19.9813 299.352 19.2133 298.883 18.744C298.414 18.2747 297.624 18.04 296.515 18.04C295.896 18.04 295.224 18.1147 294.499 18.264C293.795 18.4133 293.048 18.6693 292.259 19.032C291.854 19.224 291.491 19.2773 291.171 19.192C290.872 19.1067 290.638 18.936 290.467 18.68C290.296 18.4027 290.211 18.104 290.211 17.784C290.211 17.464 290.296 17.1547 290.467 16.856C290.638 16.536 290.926 16.3013 291.331 16.152C292.312 15.7467 293.251 15.4587 294.147 15.288C295.064 15.1173 295.896 15.032 296.643 15.032C298.179 15.032 299.438 15.2667 300.419 15.736C301.422 16.2053 302.168 16.92 302.659 17.88C303.15 18.8187 303.395 20.0347 303.395 21.528V29.208C303.395 29.8693 303.235 30.3813 302.915 30.744C302.595 31.0853 302.136 31.256 301.539 31.256C300.942 31.256 300.472 31.0853 300.131 30.744C299.811 30.3813 299.651 29.8693 299.651 29.208V27.672H299.907C299.758 28.4187 299.459 29.0693 299.011 29.624C298.584 30.1573 298.04 30.5733 297.379 30.872C296.718 31.1707 295.96 31.32 295.107 31.32ZM309.503 31.256C308.842 31.256 308.33 31.0853 307.967 30.744C307.626 30.3813 307.455 29.8693 307.455 29.208V17.112C307.455 16.4507 307.626 15.9493 307.967 15.608C308.308 15.2667 308.788 15.096 309.407 15.096C310.026 15.096 310.506 15.2667 310.847 15.608C311.188 15.9493 311.359 16.4507 311.359 17.112V19.128H311.039C311.338 17.848 311.924 16.8773 312.799 16.216C313.674 15.5547 314.836 15.16 316.287 15.032C316.735 14.9893 317.087 15.1067 317.343 15.384C317.62 15.64 317.78 16.0453 317.823 16.6C317.866 17.1333 317.738 17.5707 317.439 17.912C317.162 18.232 316.735 18.424 316.159 18.488L315.455 18.552C314.154 18.68 313.172 19.0853 312.511 19.768C311.85 20.4293 311.519 21.368 311.519 22.584V29.208C311.519 29.8693 311.348 30.3813 311.007 30.744C310.666 31.0853 310.164 31.256 309.503 31.256Z" fill="#1E6EEB"/>
<path d="M358.37 298.879C322.61 265.303 280.67 256.689 269.633 254.922C277.138 234.821 288.616 204.89 291.486 200.472C292.369 200.362 294.245 200.141 297.115 200.141C305.282 200.141 322.61 201.798 347.885 213.174C384.307 229.519 394.02 247.964 395.896 252.492L358.37 298.879Z" fill="white"/>
<path d="M297.114 202.239C305.061 202.239 322.168 203.895 346.891 215.05C379.781 229.85 390.377 246.417 393.247 252.049L358.149 295.565C336.958 276.347 314.222 265.634 298.439 260.112C287.291 256.136 278.131 254.148 272.612 253.154C280.89 230.954 289.83 208.203 292.81 202.46C293.914 202.349 295.238 202.239 297.114 202.239ZM297.114 197.821C292.7 197.821 290.382 198.263 290.382 198.263C287.843 199.146 266.652 256.578 266.652 256.578C266.652 256.578 316.981 261.658 358.59 301.97L398.324 252.712C398.324 252.712 391.701 230.292 348.657 210.964C323.603 199.699 306.054 197.821 297.114 197.821Z" fill="#A0C6F4"/>
<path d="M274.047 261.106C274.047 261.106 323.493 266.076 353.955 294.129" stroke="#2D2D2D" stroke-width="1.5" stroke-miterlimit="10" stroke-linecap="round" stroke-linejoin="round"/>
<path d="M316.76 258.676L335.192 222.781L354.175 260.222L316.76 258.676Z" fill="#5564D7"/>
<path d="M320.293 258.234L338.725 222.34L357.708 259.781L320.293 258.234Z" stroke="#2D2D2D" stroke-width="1.5" stroke-miterlimit="10" stroke-linecap="round" stroke-linejoin="round"/>
<path d="M302.965 195.611C302.965 195.611 358.371 200.581 392.916 241.556" stroke="#2D2D2D" stroke-width="1.5" stroke-miterlimit="10" stroke-linecap="round" stroke-linejoin="round"/>
<path d="M331.331 354.759C328.241 352.55 326.254 351.004 326.254 351.004C327.137 349.899 340.492 335.652 348.218 324.166C348.218 324.166 332.545 355.642 331.331 354.759Z" fill="#2D2D2D"/>
<path d="M142.266 251.054C143.7 253.483 144.363 252.489 148.667 252.158C152.972 251.827 159.042 254.919 161.249 260.221C163.457 265.522 162.684 266.295 161.58 266.958C160.477 267.62 152.199 268.614 151.868 270.271" stroke="#2D2D2D" stroke-width="1.5" stroke-miterlimit="10" stroke-linecap="round" stroke-linejoin="round"/>
<path d="M253.518 519.983L249.655 513.467L235.969 536.218L239.611 538.979L253.518 519.983Z" fill="#ECAC67"/>
<path d="M162.905 463.544C162.905 463.544 155.841 452.058 158.821 446.425L181.337 448.855L162.905 463.544Z" fill="#ECAC67"/>
<path d="M162.906 463.546L164.231 466.638L160.037 482.873C159.485 484.972 160.147 487.07 161.802 488.506L182.442 458.023C184.428 455.152 183.987 451.176 181.448 448.856L176.813 444.549L162.906 463.546Z" fill="#2D2D2D"/>
<path d="M151.868 270.378C158.38 270.267 166.547 269.826 164.892 264.856C163.236 259.886 157.166 247.626 143.149 251.381C143.149 251.381 138.182 255.468 144.363 262.868C150.544 270.267 151.868 270.378 151.868 270.378Z" fill="#2A1E33"/>
<path d="M184.537 449.077C184.537 449.077 173.5 416.496 182.882 402.138C190.608 390.321 215.772 409.538 219.194 412.078L237.184 379.497C237.184 379.497 232.99 373.644 222.836 368.011C212.682 362.268 170.52 345.259 150.654 376.515C143.369 388.112 143.259 437.701 157.276 456.698L184.537 449.077Z" fill="#457FC1"/>
<path d="M184.539 449.077C184.539 449.077 173.502 416.496 182.883 402.138C190.609 390.32 215.773 409.538 219.195 412.078" stroke="#2D2D2D" stroke-width="1.5" stroke-miterlimit="10" stroke-linecap="round" stroke-linejoin="round"/>
<path d="M237.184 379.607C229.017 388.221 204.735 430.19 199.217 450.291C191.932 477.129 194.692 499.439 234.756 543.065L254.181 514.791C254.181 514.791 240.495 494.027 243.034 474.479C246.676 446.205 266.763 418.815 277.027 401.475L237.184 379.607Z" fill="#457FC1"/>
<path d="M240.273 383.254L272.501 408.656L282.214 393.967L240.273 383.254Z" fill="#2D2D2D"/>
<path d="M425.586 356.636C430.663 357.74 434.416 359.618 437.064 362.379C439.713 365.14 438.499 366.576 437.506 367.46C436.513 368.343 432.87 367.349 429.559 364.478C426.469 361.496 425.586 356.636 425.586 356.636Z" fill="#ECAC67"/>
<path d="M326.252 351.001C327.135 349.896 340.49 335.649 348.216 324.163C348.216 324.163 371.614 350.338 374.042 351.222C375.035 351.553 380.664 351.443 387.838 351.332C399.869 351.222 415.872 351.111 419.404 352.878C425.033 355.64 428.454 357.075 429.779 361.051C431.214 365.027 431.766 367.568 428.344 367.788C424.371 368.12 421.832 363.039 421.832 363.039C421.832 363.039 418.632 365.027 410.354 368.12C410.354 368.12 380.444 379.716 360.467 374.084C354.948 372.538 326.252 351.001 326.252 351.001Z" fill="#ECAC67"/>
<path d="M144.916 246.411C142.377 247.405 140.832 248.509 142.267 251.049C143.701 253.479 144.364 252.485 148.668 252.154C152.973 251.823 159.043 254.915 161.25 260.216C163.458 265.518 162.685 266.291 161.581 266.953C160.478 267.616 152.2 268.61 151.869 270.267C151.538 271.923 155.18 276.783 162.795 276.452L164.561 276.12C164.561 276.12 180.565 291.693 182.883 294.012C185.201 296.332 202.198 307.818 211.579 310.137C218.643 311.904 233.101 309.585 241.71 307.928C245.904 307.155 248.774 306.382 248.774 306.382C248.774 306.382 242.262 294.675 240.937 276.673C240.937 276.673 225.375 279.213 215.111 281.422C215.111 281.422 191.05 267.947 179.241 261.983C179.241 261.983 168.976 249.393 164.23 247.736C159.484 246.411 148.447 245.085 144.916 246.411Z" fill="#ECAC67"/>
<path d="M241.71 308.15C245.904 307.377 248.773 306.604 248.773 306.604C248.773 306.604 240.937 296.664 239.612 278.661C239.612 278.661 236.081 282.527 237.184 292.688C238.509 305.499 241.71 308.15 241.71 308.15Z" fill="#2D2D2D"/>
<path d="M239.281 276.674C239.281 276.674 239.502 298.652 245.352 307.819L247.449 306.936C247.449 306.936 219.636 339.406 210.696 360.722C209.261 364.146 268.309 402.028 277.028 401.476C277.028 401.476 305.834 357.519 315.657 344.487L326.253 352.66C326.253 352.66 347.002 331.565 348.106 324.165C348.106 324.165 328.019 299.757 311.684 292.578C295.239 285.399 280.56 273.14 263.011 273.471C247.78 273.802 239.281 276.674 239.281 276.674Z" fill="#F2CC45"/>
<path d="M326.363 352.659L315.768 344.486L317.423 339.847L326.363 352.659Z" fill="#2D2D2D"/>
<path d="M342.477 265.628C340.6 271.371 335.303 288.048 329.343 290.147C323.383 292.245 317.202 289.595 317.202 289.595L310.801 292.797C310.138 294.896 305.061 296.773 298.55 296.994C293.804 297.215 290.824 291.03 292.259 286.502C292.921 284.404 295.349 274.353 295.349 274.353C295.349 274.353 300.536 255.357 305.282 251.491C310.028 247.626 314.443 243.65 327.135 248.84C346.34 256.793 342.477 265.628 342.477 265.628Z" fill="#ECAC67"/>
<path d="M304.068 266.513C303.185 270.047 299.543 277.115 297.115 275.9C294.686 274.575 293.804 271.372 295.569 265.077C297.335 258.781 298.66 244.644 303.516 242.104C308.372 239.564 310.469 242.546 310.469 242.546C310.469 242.546 308.372 232.164 314.553 230.839C314.553 230.839 316.65 229.845 315.877 236.913C315.877 236.913 318.306 230.397 326.031 231.281C333.757 232.164 336.517 242.988 336.517 242.988C336.517 242.988 337.068 240.006 340.6 240.006C344.132 240.006 349.54 245.197 348.216 251.05C348.216 251.05 357.266 248.179 362.122 255.468C366.979 262.647 366.316 270.599 354.728 273.802C342.587 277.115 342.697 262.868 340.821 261.101C338.945 259.223 336.958 257.125 330.226 259.665C323.383 262.205 316.319 254.695 316.319 254.695C316.319 254.695 315.215 263.751 314.001 264.635C312.897 265.519 310.58 266.623 311.132 262.316C311.683 258.119 312.456 258.45 312.015 257.346C311.573 256.241 309.697 252.596 305.613 255.799C301.198 259.223 304.068 266.513 304.068 266.513Z" fill="#2A3353"/>
<path d="M305.944 268.061C303.295 265.741 301.419 261.765 303.736 257.789C306.054 253.813 310.027 253.261 311.241 254.807C312.456 256.354 312.897 258.894 311.793 261.876" stroke="#2A1E33" stroke-width="1.5" stroke-miterlimit="10" stroke-linecap="round" stroke-linejoin="round"/>
<path d="M239.613 538.979L240.938 542.072L236.744 558.307C236.192 560.406 236.854 562.504 238.509 563.94L259.149 533.457C261.135 530.586 260.694 526.61 258.155 524.29L253.52 519.983L239.613 538.979Z" fill="#2D2D2D"/>
<path d="M310.472 242.546C310.472 242.546 308.926 237.355 304.18 236.029" stroke="#2A1E33" stroke-width="1.5" stroke-miterlimit="10" stroke-linecap="round" stroke-linejoin="round"/>
<path d="M210.033 359.175L267.205 279.324" stroke="#2D2D2D" stroke-width="1.5" stroke-miterlimit="10" stroke-linecap="round" stroke-linejoin="round"/>
<path d="M290.825 284.955C288.728 287.605 287.845 299.202 297.336 299.865C306.828 300.527 312.899 296.441 312.899 296.441" stroke="#2D2D2D" stroke-width="1.5" stroke-miterlimit="10" stroke-linecap="round" stroke-linejoin="round"/>
<path d="M164.23 248.068C164.23 248.068 170.742 256.683 171.736 259.775" stroke="#2D2D2D" stroke-width="1.5" stroke-miterlimit="10" stroke-linecap="round" stroke-linejoin="round"/>
<path d="M408.811 364.036C408.811 364.036 413.225 367.68 421.834 362.931C425.035 361.274 422.717 357.298 418.744 358.292C414.771 359.286 410.025 357.74 410.025 357.74" stroke="#2D2D2D" stroke-width="1.5" stroke-miterlimit="10" stroke-linecap="round" stroke-linejoin="round"/>
<path d="M427.131 357.078C427.131 357.078 431.325 361.937 431.215 364.919" stroke="#2D2D2D" stroke-width="1.5" stroke-miterlimit="10" stroke-linecap="round" stroke-linejoin="round"/>
<path d="M365.434 356.525C365.434 356.525 369.186 351.444 374.042 351.113" stroke="#2D2D2D" stroke-width="1.5" stroke-miterlimit="10" stroke-linecap="round" stroke-linejoin="round"/>
<path d="M205.84 289.815C205.84 289.815 208.047 282.967 215.111 281.642" stroke="#2D2D2D" stroke-width="1.5" stroke-miterlimit="10" stroke-linecap="round" stroke-linejoin="round"/>
<path d="M225.043 394.408L216.545 410.533C216.545 410.533 188.731 457.692 198.113 488.175" stroke="#2D2D2D" stroke-width="1.5" stroke-miterlimit="10" stroke-linecap="round" stroke-linejoin="round"/>
<path d="M249.656 448.526L277.028 401.477C277.028 401.477 313.008 349.347 316.651 341.947L329.343 318.423" stroke="#2D2D2D" stroke-width="1.5" stroke-miterlimit="10" stroke-linecap="round" stroke-linejoin="round"/>
<path d="M213.896 364.258C213.896 364.258 262.68 399.821 277.138 401.589" stroke="#2D2D2D" stroke-width="1.5" stroke-miterlimit="10" stroke-linecap="round" stroke-linejoin="round"/>
<path d="M239.281 276.674C239.281 276.674 239.281 298.983 245.241 308.15" stroke="#2D2D2D" stroke-width="1.5" stroke-miterlimit="10" stroke-linecap="round" stroke-linejoin="round"/>
<path d="M346.67 320.629C345.124 329.796 324.816 349.124 324.816 349.124" stroke="#2D2D2D" stroke-width="1.5" stroke-miterlimit="10" stroke-linecap="round" stroke-linejoin="round"/>
<path d="M194.804 435.163C196.389 435.163 197.674 433.877 197.674 432.291C197.674 430.705 196.389 429.419 194.804 429.419C193.219 429.419 191.934 430.705 191.934 432.291C191.934 433.877 193.219 435.163 194.804 435.163Z" fill="#2D2D2D"/>
<path d="M466.423 494.583L464.768 483.428L474.259 489.724L469.293 490.828L466.423 494.583Z" stroke="#2D2D2D" stroke-width="1.5" stroke-miterlimit="10" stroke-linecap="round" stroke-linejoin="round"/>
<path d="M153.194 305.392C135.314 289.598 105.735 329.027 213.897 454.382C276.367 526.723 325.371 533.239 331.993 508.058C343.913 462.886 300.869 451.51 316.872 469.181C340.16 494.915 406.382 500.327 455.718 476.36C504.391 452.725 474.481 415.947 471.501 413.738" stroke="#2D2D2D" stroke-width="1.5" stroke-miterlimit="10" stroke-linecap="round" stroke-linejoin="round"/>
<path d="M456.601 479.013C458.186 479.013 459.471 477.727 459.471 476.141C459.471 474.555 458.186 473.269 456.601 473.269C455.015 473.269 453.73 474.555 453.73 476.141C453.73 477.727 455.015 479.013 456.601 479.013Z" fill="#2D2D2D"/>
<path d="M414.439 499.776L500.307 451.401" stroke="#2D2D2D" stroke-width="1.5" stroke-miterlimit="10" stroke-linecap="round" stroke-linejoin="round"/>
<path d="M154.96 310.585C156.545 310.585 157.83 309.299 157.83 307.713C157.83 306.127 156.545 304.841 154.96 304.841C153.375 304.841 152.09 306.127 152.09 307.713C152.09 309.299 153.375 310.585 154.96 310.585Z" fill="#2D2D2D"/>
<path d="M228.798 254.144C232.211 254.144 234.979 251.375 234.979 247.959C234.979 244.543 232.211 241.774 228.798 241.774C225.384 241.774 222.617 244.543 222.617 247.959C222.617 251.375 225.384 254.144 228.798 254.144Z" fill="#E04B43"/>
<path d="M116.109 200.578C114.564 200.578 113.35 201.793 113.35 203.34C113.35 204.886 114.564 206.101 116.109 206.101C117.655 206.101 118.869 204.886 118.869 203.34C118.869 201.793 117.655 200.578 116.109 200.578Z" fill="#5564D7"/>
<path d="M481.875 539.866C483.399 539.866 484.635 538.63 484.635 537.105C484.635 535.58 483.399 534.343 481.875 534.343C480.351 534.343 479.115 535.58 479.115 537.105C479.115 538.63 480.351 539.866 481.875 539.866Z" fill="#FAD8B0"/>
<path d="M433.091 413.737L403.733 399.931C401.415 398.827 401.415 395.403 403.843 394.409L458.476 370.332C459.249 370.001 460.132 370.001 460.904 370.332L498.43 386.457L433.091 413.737Z" fill="#2A1E33"/>
<path d="M431.326 368.456C431.437 380.605 433.092 413.739 433.092 413.739L498.321 386.459L496.886 340.293C496.776 337.421 493.906 335.654 491.257 336.759L435.079 362.382C432.761 363.597 431.326 365.916 431.326 368.456Z" fill="#5564D7"/>
<path d="M433.09 413.74L498.318 386.46L496.884 340.294C496.884 340.294 496.442 335.214 491.255 336.76" stroke="#2D2D2D" stroke-width="1.5" stroke-miterlimit="10" stroke-linecap="round" stroke-linejoin="round"/>
<path d="M464.656 380.605L469.071 370.113" stroke="white" stroke-width="1.5" stroke-miterlimit="10" stroke-linecap="round" stroke-linejoin="round"/>
<path d="M469.072 380.605L473.487 370.113" stroke="white" stroke-width="1.5" stroke-miterlimit="10" stroke-linecap="round" stroke-linejoin="round"/>
<path d="M127.92 494.252C129.444 494.252 130.679 493.015 130.679 491.49C130.679 489.965 129.444 488.729 127.92 488.729C126.396 488.729 125.16 489.965 125.16 491.49C125.16 493.015 126.396 494.252 127.92 494.252Z" fill="#E04B43"/>
<path d="M358.04 508.831C360.112 508.831 361.792 507.15 361.792 505.076C361.792 503.002 360.112 501.321 358.04 501.321C355.967 501.321 354.287 503.002 354.287 505.076C354.287 507.15 355.967 508.831 358.04 508.831Z" fill="#E04B43"/>
<path d="M156.173 532.025C160.587 534.123 173.501 539.535 190.608 539.424C191.491 539.424 192.264 540.197 192.153 541.191L189.725 560.077C189.615 560.74 189.173 561.292 188.511 561.403C183.655 562.286 164.23 564.937 149.661 552.678C149.219 552.346 148.999 551.684 149.219 551.131L154.076 533.129C154.296 532.025 155.29 531.583 156.173 532.025Z" fill="#FFF7DC"/>
<path d="M157.828 537.548C157.828 537.548 166.216 549.366 169.196 551.023C172.176 552.679 188.401 543.071 188.401 543.071" stroke="#2D2D2D" stroke-width="1.5" stroke-miterlimit="10" stroke-linecap="round" stroke-linejoin="round"/>
<path d="M177.254 549.474L186.083 558.531" stroke="#2D2D2D" stroke-width="1.5" stroke-miterlimit="10" stroke-linecap="round" stroke-linejoin="round"/>
<path d="M165.004 547.709L154.629 550.471" stroke="#2D2D2D" stroke-width="1.5" stroke-miterlimit="10" stroke-linecap="round" stroke-linejoin="round"/>
<path d="M426.8 308.262H416.977V318.092H426.8V308.262Z" fill="#FFE1C0"/>
<path d="M418.301 441.569L421.281 446.649L424.15 451.729H418.301H412.451L415.321 446.649L418.301 441.569Z" fill="#5564D7"/>
<path d="M181.006 216.152L181.779 193.069C181.669 190.86 182.552 190.197 183.876 189.976C190.167 188.54 209.261 184.344 229.9 190.418C232.549 191.191 232.439 192.627 232.439 193.952L231.666 215.931C231.666 217.587 229.9 218.692 228.024 218.471C221.954 217.587 213.786 217.256 205.398 217.367C196.789 217.477 189.063 218.029 183.655 219.134C181.669 219.465 180.896 217.919 181.006 216.152Z" stroke="#2D2D2D" stroke-width="1.5" stroke-miterlimit="10" stroke-linecap="round" stroke-linejoin="round"/>
<path d="M187.959 212.838L199.989 198.701L213.344 211.844C208.709 210.298 187.959 212.838 187.959 212.838Z" stroke="#2D2D2D" stroke-width="1.5" stroke-miterlimit="10" stroke-linecap="round" stroke-linejoin="round"/>
<path d="M207.385 205.217L217.097 197.376L225.375 203.229L225.706 212.396L213.345 211.844" stroke="#2D2D2D" stroke-width="1.5" stroke-miterlimit="10" stroke-linecap="round" stroke-linejoin="round"/>
<path d="M193.251 197.626C193.361 196.534 192.369 195.538 191.035 195.403C189.7 195.268 188.529 196.045 188.419 197.137C188.308 198.23 189.3 199.225 190.635 199.36C191.969 199.495 193.14 198.719 193.251 197.626Z" stroke="#2D2D2D" stroke-width="1.5" stroke-miterlimit="10" stroke-linecap="round" stroke-linejoin="round"/>
<path d="M414.218 516.23L422.275 531.14C423.158 532.465 422.827 533.238 422.054 533.901C418.632 537.104 408.037 546.933 392.585 550.688C390.599 551.13 390.157 550.247 389.716 549.473L381.99 535.226C381.438 534.232 382.1 532.796 383.314 532.244C387.508 530.587 392.806 527.716 398.104 524.513C403.512 521.2 408.258 517.997 411.238 515.346C412.562 514.352 413.666 515.015 414.218 516.23Z" stroke="#2D2D2D" stroke-width="1.5" stroke-miterlimit="10" stroke-linecap="round" stroke-linejoin="round"/>
<path d="M411.127 520.979L408.698 534.453L395.344 531.029C398.765 530.256 411.127 520.979 411.127 520.979Z" stroke="#2D2D2D" stroke-width="1.5" stroke-miterlimit="10" stroke-linecap="round" stroke-linejoin="round"/>
<path d="M401.525 533.015L398.214 541.629L390.819 540.967L387.287 535.223L395.344 531.027" stroke="#2D2D2D" stroke-width="1.5" stroke-miterlimit="10" stroke-linecap="round" stroke-linejoin="round"/>
<path d="M415.567 533.123C416.454 532.717 416.906 531.803 416.577 531.082C416.247 530.361 415.261 530.105 414.374 530.511C413.487 530.916 413.035 531.83 413.364 532.551C413.694 533.273 414.68 533.528 415.567 533.123Z" stroke="#2D2D2D" stroke-width="1.5" stroke-miterlimit="10" stroke-linecap="round" stroke-linejoin="round"/>
<path d="M374.815 260.882L407.705 286.063C408.478 286.615 409.471 286.505 410.023 285.732L414.989 278.995C415.541 278.332 415.431 277.338 414.658 276.786L382.21 250.831C381.437 250.279 380.444 250.389 379.892 251.163L374.484 258.673C374.042 259.335 374.153 260.329 374.815 260.882Z" fill="white" stroke="#2D2D2D" stroke-width="1.5" stroke-miterlimit="10" stroke-linecap="round" stroke-linejoin="round"/>
<path d="M377.354 259.777L385.3 265.409L389.936 259.777L381.989 253.15L377.354 259.777Z" fill="#E04B43"/>
<path d="M388.279 267.618L396.226 273.913L400.53 268.612L392.473 262.095L388.279 267.618Z" fill="#FAD8B0"/>
<path d="M398.984 276.343L406.931 281.976L410.684 277.116L403.178 270.711L398.984 276.343Z" fill="#5564D7"/>
<path d="M440.484 225.649L447.989 288.713C448.099 290.149 449.424 291.032 450.748 290.922L463.441 289.155C464.765 288.934 465.759 287.83 465.538 286.394L459.357 223.109C459.247 221.673 457.922 220.679 456.488 220.9L442.471 222.999C441.256 223.109 440.374 224.324 440.484 225.649Z" fill="white" stroke="#2D2D2D" stroke-width="1.5" stroke-miterlimit="10" stroke-linecap="round" stroke-linejoin="round"/>
<path d="M444.348 227.195L446.665 241.884L457.923 241.111L456.709 225.207L444.348 227.195Z" fill="#E04B43"/>
<path d="M447.549 247.516L449.094 263.088L459.469 262.205L458.034 246.301L447.549 247.516Z" fill="#91BA83"/>
<path d="M449.314 268.611L451.632 283.411L461.014 282.306L459.91 267.286L449.314 268.611Z" fill="#FAD8B0"/>
<path d="M424.151 239.123L444.9 300.198C445.231 301.192 446.445 301.745 447.439 301.413L460.462 296.775C461.456 296.443 462.007 295.339 461.676 294.345L442.141 232.717C441.81 231.612 440.596 231.06 439.602 231.502L425.365 236.803C424.261 237.024 423.819 238.129 424.151 239.123Z" fill="white" stroke="#2D2D2D" stroke-width="1.5" stroke-miterlimit="10" stroke-linecap="round" stroke-linejoin="round"/>
<path d="M428.344 240.228L433.752 254.144L444.458 251.052L440.043 235.7L428.344 240.228Z" fill="#5564D7"/>
<path d="M435.74 259.445L440.486 274.355L450.419 271.262L445.674 256.132L435.74 259.445Z" fill="#E04B43"/>
<path d="M441.809 279.765L447.217 293.681L456.157 290.699L451.963 276.231L441.809 279.765Z" fill="#FAD8B0"/>
<path d="M267.757 342.501H163.016C159.705 342.501 156.945 339.74 156.945 336.427V322.29C156.945 318.976 159.705 316.215 163.016 316.215H267.757C271.068 316.215 273.827 318.976 273.827 322.29V336.427C273.827 339.85 271.068 342.501 267.757 342.501Z" fill="#E04B43"/>
<path d="M228.465 327.923H171.293C170.19 327.923 169.307 327.039 169.307 325.935C169.307 324.831 170.19 323.947 171.293 323.947H228.465C229.569 323.947 230.452 324.831 230.452 325.935C230.452 327.039 229.569 327.923 228.465 327.923Z" fill="white"/>
<path d="M169.969 333.114H266.984" stroke="#2D2D2D" stroke-width="1.5" stroke-miterlimit="10" stroke-linecap="round" stroke-linejoin="round"/>
<path d="M121.848 268.612L120.192 266.845L114.674 271.815L116.329 273.582C116.992 274.355 118.206 274.355 118.978 273.692L121.737 271.263C122.51 270.489 122.62 269.275 121.848 268.612Z" fill="#91BA83"/>
<path d="M112.356 256.796L120.193 265.3C120.634 265.742 120.524 266.404 120.082 266.846L114.674 271.816C114.233 272.258 113.571 272.147 113.129 271.706L105.293 263.201C104.851 262.76 104.962 262.097 105.403 261.655L110.811 256.685C111.253 256.354 111.915 256.354 112.356 256.796Z" stroke="#2D2D2D" stroke-width="1.5" stroke-miterlimit="10" stroke-linecap="round" stroke-linejoin="round"/>
<path d="M97.2331 301.968H87.4102V310.914H97.2331V301.968Z" fill="#E04B43"/>
<path d="M87.413 296.225V301.969H81.5625" stroke="#2D2D2D" stroke-width="1.5" stroke-miterlimit="10" stroke-linecap="round" stroke-linejoin="round"/>
<path d="M419.846 201.022H410.023V209.968H419.846V201.022Z" fill="#FAD8B0"/>
<path d="M410.024 195.278V201.022H404.174" stroke="#2D2D2D" stroke-width="1.5" stroke-miterlimit="10" stroke-linecap="round" stroke-linejoin="round"/>
<path d="M145.025 256.244C43.4849 214.164 -34.6569 295.231 156.724 419.37C171.845 429.2 194.912 432.624 194.912 432.624" stroke="#2D2D2D" stroke-width="1.5" stroke-miterlimit="10" stroke-linecap="round" stroke-linejoin="round"/>
<path d="M51.6533 261.989C53.2384 261.989 54.5233 260.703 54.5233 259.117C54.5233 257.531 53.2384 256.245 51.6533 256.245C50.0682 256.245 48.7832 257.531 48.7832 259.117C48.7832 260.703 50.0682 261.989 51.6533 261.989Z" fill="#2D2D2D"/>
<path d="M33.2207 243.212L36.4215 240.23L43.7058 244.317L47.3481 255.692L36.2007 250.943L33.2207 243.212Z" stroke="#2D2D2D" stroke-width="1.5" stroke-miterlimit="10" stroke-linecap="round" stroke-linejoin="round"/>
<path d="M36.4225 240.23L33.2212 243.212L31.4551 241.114L34.4355 238.131L36.4225 240.23Z" stroke="#2D2D2D" stroke-width="1.5" stroke-miterlimit="10" stroke-linecap="round" stroke-linejoin="round"/>
<path d="M47.3489 255.69L40.0645 247.628" stroke="#2D2D2D" stroke-width="1.5" stroke-miterlimit="10" stroke-linecap="round" stroke-linejoin="round"/>
<path d="M64.8969 458.357L72.7332 499C72.954 499.884 73.7265 500.436 74.7199 500.326L82.8872 498.559C83.7702 498.338 84.322 497.565 84.1013 496.681L77.0376 455.706C76.9273 454.822 76.0443 454.16 75.051 454.381L66.0006 456.369C65.3384 456.7 64.7866 457.584 64.8969 458.357Z" fill="white" stroke="#2D2D2D" stroke-width="1.5" stroke-miterlimit="10" stroke-linecap="round" stroke-linejoin="round"/>
<path d="M67.5449 459.128L69.7523 468.627L77.0367 467.633L75.4916 457.361L67.5449 459.128Z" fill="#E04B43"/>
<path d="M70.5254 472.273L72.2913 482.323L79.0238 481.219L77.3683 471.058L70.5254 472.273Z" fill="#FAD8B0"/>
<path d="M72.7324 485.966L74.9398 495.464L81.0102 494.249L79.5753 484.53L72.7324 485.966Z" fill="#5564D7"/>
<path d="M290.824 560.408L324.156 551.462L325.48 554.996L291.707 563.831L290.824 560.408Z" stroke="#2D2D2D" stroke-width="1.5" stroke-miterlimit="10" stroke-linecap="round" stroke-linejoin="round"/>
<path d="M286.189 555.658L287.183 558.751" stroke="#2D2D2D" stroke-width="1.5" stroke-miterlimit="10" stroke-linecap="round" stroke-linejoin="round"/>
<path d="M285.307 557.645L288.066 556.651" stroke="#2D2D2D" stroke-width="1.5" stroke-miterlimit="10" stroke-linecap="round" stroke-linejoin="round"/>
<path d="M284.645 567.256L286.411 573" stroke="#2D2D2D" stroke-width="1.5" stroke-miterlimit="10" stroke-linecap="round" stroke-linejoin="round"/>
<path d="M283.1 570.899L288.067 569.242" stroke="#2D2D2D" stroke-width="1.5" stroke-miterlimit="10" stroke-linecap="round" stroke-linejoin="round"/>
<path d="M276.918 557.866L279.346 565.377" stroke="#2D2D2D" stroke-width="1.5" stroke-miterlimit="10" stroke-linecap="round" stroke-linejoin="round"/>
<path d="M274.6 562.505L281.663 560.296" stroke="#2D2D2D" stroke-width="1.5" stroke-miterlimit="10" stroke-linecap="round" stroke-linejoin="round"/>
<path d="M47.6783 197.928L26.5977 188.43L27.4806 186L48.6716 195.719L47.6783 197.928Z" stroke="#2D2D2D" stroke-width="1.5" stroke-miterlimit="10" stroke-linecap="round" stroke-linejoin="round"/>
<path d="M48.1191 202.346L48.8919 200.357" stroke="#2D2D2D" stroke-width="1.5" stroke-miterlimit="10" stroke-linecap="round" stroke-linejoin="round"/>
<path d="M49.4449 201.682L47.5684 201.02" stroke="#2D2D2D" stroke-width="1.5" stroke-miterlimit="10" stroke-linecap="round" stroke-linejoin="round"/>
<path d="M53.8594 197.045L55.4048 193.289" stroke="#2D2D2D" stroke-width="1.5" stroke-miterlimit="10" stroke-linecap="round" stroke-linejoin="round"/>
<path d="M56.2882 195.717L52.9766 194.503" stroke="#2D2D2D" stroke-width="1.5" stroke-miterlimit="10" stroke-linecap="round" stroke-linejoin="round"/>
<path d="M53.8613 205.107L55.8483 200.136" stroke="#2D2D2D" stroke-width="1.5" stroke-miterlimit="10" stroke-linecap="round" stroke-linejoin="round"/>
<path d="M57.061 203.67L52.5352 201.903" stroke="#2D2D2D" stroke-width="1.5" stroke-miterlimit="10" stroke-linecap="round" stroke-linejoin="round"/>
<path d="M126.595 376.186C111.695 365.473 97.1258 348.796 103.527 331.677C103.527 331.677 113.792 324.829 130.016 333.334C146.24 341.838 146.24 341.838 146.24 341.838L126.595 376.186Z" fill="#FAD8B0"/>
<path d="M119.861 447.641C113.128 444.438 84.5427 429.638 79.4657 404.126C75.0509 382.147 91.8271 352.548 100.326 339.405C99.7737 356.745 117.212 371.434 125.6 377.508C134.099 383.693 140.39 386.675 148.999 389.878L119.861 447.641Z" fill="white"/>
<path d="M99.0015 344.598C100.878 356.195 109.597 368.123 124.607 378.946C132.664 384.8 138.735 387.782 146.681 390.875L119.089 445.434C110.701 441.237 85.7572 426.99 81.1216 403.797C77.2587 384.469 90.2823 358.956 99.0015 344.598ZM103.527 331.787C103.527 331.787 71.9609 374.529 77.9209 404.459C83.8808 434.39 120.634 449.741 120.634 449.741L151.427 388.997C141.825 385.463 135.534 382.591 126.594 376.185C111.694 365.472 97.1252 348.906 103.527 331.787Z" fill="#FAD8B0"/>
<path d="M95.1387 356.638C95.1387 356.638 97.015 373.868 114.122 383.034" stroke="#2D2D2D" stroke-width="1.5" stroke-miterlimit="10" stroke-linecap="round" stroke-linejoin="round"/>
<path d="M123.393 389.107L140.5 398.274" stroke="#2D2D2D" stroke-width="1.5" stroke-miterlimit="10" stroke-linecap="round" stroke-linejoin="round"/>
<path d="M97.6777 381.155C97.6777 381.155 103.196 393.414 120.966 401.366" stroke="#2D2D2D" stroke-width="1.5" stroke-miterlimit="10" stroke-linecap="round" stroke-linejoin="round"/>
<path d="M83.5488 383.033C83.5488 383.033 84.2111 395.955 92.7095 400.263" stroke="#2D2D2D" stroke-width="1.5" stroke-miterlimit="10" stroke-linecap="round" stroke-linejoin="round"/>
<path d="M103.195 338.194C103.195 338.194 101.649 354.761 126.593 376.187" stroke="#2D2D2D" stroke-width="1.5" stroke-miterlimit="10" stroke-linecap="round" stroke-linejoin="round"/>
<path d="M112.355 341.286C112.355 341.286 120.302 340.624 132.001 349.238" stroke="#2D2D2D" stroke-width="1.5" stroke-miterlimit="10" stroke-linecap="round" stroke-linejoin="round"/>
<path d="M74.8302 394.078C74.2783 402.251 75.382 432.071 118.426 450.957" stroke="#2D2D2D" stroke-width="1.5" stroke-miterlimit="10" stroke-linecap="round" stroke-linejoin="round"/>
<path d="M349.76 377.511L331.549 414.179C331.549 414.179 343.91 418.707 334.198 432.954C334.198 432.954 357.044 442.453 372.055 417.824C387.065 393.084 349.76 377.511 349.76 377.511Z" fill="#457FC1"/>
<path d="M307.93 489.395C298.659 489.395 288.946 485.64 278.902 478.129L313.007 421.471L333.315 434.283H333.425C333.646 434.393 338.171 436.16 344.572 436.16C349.76 436.16 356.161 434.945 362.452 430.528L337.619 473.491C337.509 473.491 326.803 489.395 307.93 489.395Z" fill="white"/>
<path d="M313.67 423.9L332.433 435.717L332.654 435.828L332.875 435.938C333.095 436.049 337.841 438.037 344.574 438.037C348.437 438.037 353.183 437.374 357.928 435.276L336.186 472.606C335.523 473.6 325.369 487.847 307.931 487.847C299.432 487.847 290.382 484.534 281.111 477.797L313.67 423.9ZM372.056 417.715C363.557 431.631 352.631 434.723 344.684 434.723C338.503 434.723 334.199 432.956 334.199 432.956L312.566 419.372L276.807 478.68C288.837 487.958 299.212 491.161 308.041 491.161C328.018 491.161 339.166 474.373 339.166 474.373L372.056 417.715Z" fill="#1E6EEB"/>
<path d="M331.439 414.179C331.439 414.179 345.015 419.038 334.088 432.954" stroke="#2D2D2D" stroke-width="1.5" stroke-miterlimit="10" stroke-linecap="round" stroke-linejoin="round"/>
<path d="M312.125 418.044C312.125 418.044 330.667 435.053 340.932 434.942C351.196 434.832 363.226 432.402 370.29 420.143" stroke="#2D2D2D" stroke-width="1.5" stroke-miterlimit="10" stroke-linecap="round" stroke-linejoin="round"/>
<path d="M314.443 440.02C314.443 440.02 327.136 451.286 341.374 447.751" stroke="#2D2D2D" stroke-width="1.5" stroke-miterlimit="10" stroke-linecap="round" stroke-linejoin="round"/>
<path d="M327.799 456.92C327.799 456.92 334.531 461.89 343.802 457.141" stroke="#2D2D2D" stroke-width="1.5" stroke-miterlimit="10" stroke-linecap="round" stroke-linejoin="round"/>
<path d="M297.004 463.88C297.004 463.88 312.456 479.232 336.627 469.071" stroke="#2D2D2D" stroke-width="1.5" stroke-miterlimit="10" stroke-linecap="round" stroke-linejoin="round"/>
<path d="M305.393 448.97C305.393 448.97 311.684 453.498 315.657 454.934" stroke="#2D2D2D" stroke-width="1.5" stroke-miterlimit="10" stroke-linecap="round" stroke-linejoin="round"/>
<path d="M352.852 388.224C352.852 388.224 366.869 392.862 368.634 411.417" stroke="#2D2D2D" stroke-width="1.5" stroke-miterlimit="10" stroke-linecap="round" stroke-linejoin="round"/>
<path d="M359.916 411.087C359.916 411.087 366.428 421.137 355.391 431.188" stroke="#2D2D2D" stroke-width="1.5" stroke-miterlimit="10" stroke-linecap="round" stroke-linejoin="round"/>
<path d="M278.021 481.44C278.021 481.44 313.34 511.702 338.946 476.359" stroke="#2D2D2D" stroke-width="1.5" stroke-miterlimit="10" stroke-linecap="round" stroke-linejoin="round"/>
<path d="M23.0664 366.136H31.2338" stroke="#E04B43" stroke-width="1.5" stroke-miterlimit="10" stroke-linecap="round" stroke-linejoin="round"/>
<path d="M481.875 266.957H490.153" stroke="#E04B43" stroke-width="1.5" stroke-miterlimit="10" stroke-linecap="round" stroke-linejoin="round"/>
<path d="M261.025 210.409H269.193" stroke="#FAD8B0" stroke-width="1.5" stroke-miterlimit="10"/>
<path d="M497.658 309.699L505.715 311.134" stroke="#FAD8B0" stroke-width="1.5" stroke-miterlimit="10"/>
<path d="M174.053 515.458H182.22" stroke="#5564D7" stroke-width="1.5" stroke-miterlimit="10" stroke-linecap="round" stroke-linejoin="round"/>
<path d="M515.316 415.395C516.84 415.395 518.076 414.159 518.076 412.634C518.076 411.109 516.84 409.872 515.316 409.872C513.792 409.872 512.557 411.109 512.557 412.634C512.557 414.159 513.792 415.395 515.316 415.395Z" fill="#91BA83"/>
<path d="M2.75967 284.406C4.2838 284.406 5.51934 283.17 5.51934 281.645C5.51934 280.12 4.2838 278.883 2.75967 278.883C1.23555 278.883 0 280.12 0 281.645C0 283.17 1.23555 284.406 2.75967 284.406Z" fill="#91BA83"/>
</svg>
